<svg xmlns="http://www.w3.org/2000/svg" style="display: none;">
    <symbol id="menu-open-icon" viewBox="0 0 32 23">
        <rect width="32" height="3" rx="1.5" fill="#0671E0" />
        <rect y="10" width="32" height="3" rx="1.5" fill="#0671E0" />
        <rect y="20" width="32" height="3" rx="1.5" fill="#0671E0" />
    </symbol>
    <symbol id="menu-close-icon" viewBox="0 0 22 22">
        <path
            d="M12.2962 10.9945L21.7316 1.55912C22.0833 1.195 22.0733 0.614654 21.7091 0.262949C21.3539 -0.0801627 20.7907 -0.0801627 20.4354 0.262949L11 9.69837L1.56456 0.262949C1.2004 -0.0887566 0.620093 -0.0786587 0.268388 0.285465C-0.074724 0.640694 -0.074724 1.2039 0.268388 1.55912L9.7038 10.9945L0.268388 20.43C-0.0894625 20.7879 -0.0894625 21.3682 0.268388 21.7261C0.626366 22.084 1.20663 22.084 1.56456 21.7261L11 12.2907L20.4354 21.7261C20.7934 22.084 21.3736 22.084 21.7316 21.7261C22.0894 21.3682 22.0894 20.7879 21.7316 20.43L12.2962 10.9945Z"
            fill="#111111" />
    </symbol>
    <symbol id="shopping-cart-icon" viewBox="0 0 17 17">
        <path
            d="M16.0884 2.88787C15.8891 2.64877 15.6397 2.45646 15.3578 2.32462C15.0758 2.19277 14.7683 2.12462 14.4571 2.125H3.00475L2.975 1.87637C2.91412 1.35959 2.66573 0.883102 2.27693 0.537255C1.88813 0.191408 1.38594 0.000242104 0.865583 0L0.708333 0C0.520472 0 0.340304 0.0746278 0.207466 0.207466C0.0746278 0.340304 0 0.520472 0 0.708333C0 0.896195 0.0746278 1.07636 0.207466 1.2092C0.340304 1.34204 0.520472 1.41667 0.708333 1.41667H0.865583C1.03908 1.41669 1.20653 1.48039 1.33618 1.59567C1.46583 1.71096 1.54866 1.86982 1.56896 2.04212L2.54362 10.3296C2.64481 11.1915 3.05892 11.9863 3.70735 12.563C4.35578 13.1398 5.1934 13.4584 6.06121 13.4583H13.4583C13.6462 13.4583 13.8264 13.3837 13.9592 13.2509C14.092 13.118 14.1667 12.9379 14.1667 12.75C14.1667 12.5621 14.092 12.382 13.9592 12.2491C13.8264 12.1163 13.6462 12.0417 13.4583 12.0417H6.06121C5.62279 12.0404 5.19548 11.9036 4.83787 11.65C4.48026 11.3964 4.20985 11.0383 4.06371 10.625H12.507C13.3374 10.625 14.1414 10.3333 14.7785 9.80081C15.4157 9.26829 15.8454 8.52883 15.9927 7.71162L16.5488 4.62754C16.6043 4.32155 16.5918 4.00709 16.5123 3.70645C16.4327 3.40581 16.288 3.12635 16.0884 2.88787Z"
            fill="#111111" />
        <path
            d="M4.95817 17C5.74057 17 6.37484 16.3657 6.37484 15.5833C6.37484 14.8009 5.74057 14.1666 4.95817 14.1666C4.17577 14.1666 3.5415 14.8009 3.5415 15.5833C3.5415 16.3657 4.17577 17 4.95817 17Z"
            fill="#111111" />
        <path
            d="M12.0417 17C12.8241 17 13.4583 16.3657 13.4583 15.5833C13.4583 14.8009 12.8241 14.1666 12.0417 14.1666C11.2593 14.1666 10.625 14.8009 10.625 15.5833C10.625 16.3657 11.2593 17 12.0417 17Z"
            fill="#111111" />
    </symbol>
    <symbol id="dropdown-menu-arrow" viewBox="0 0 14 14">
        <path
            d="M10.2609 8.75H3.73924C3.62387 8.74952 3.51124 8.71483 3.41558 8.65034C3.31993 8.58584 3.24554 8.49443 3.20184 8.38766C3.15813 8.28089 3.14706 8.16356 3.17004 8.05051C3.19301 7.93745 3.249 7.83374 3.33091 7.7525L6.58591 4.4975C6.64014 4.44282 6.70465 4.39943 6.77574 4.36981C6.84682 4.3402 6.92307 4.32495 7.00008 4.32495C7.07708 4.32495 7.15333 4.3402 7.22441 4.36981C7.2955 4.39943 7.36001 4.44282 7.41424 4.4975L10.6692 7.7525C10.7512 7.83374 10.8071 7.93745 10.8301 8.05051C10.8531 8.16356 10.842 8.28089 10.7983 8.38766C10.7546 8.49443 10.6802 8.58584 10.5846 8.65034C10.4889 8.71483 10.3763 8.74952 10.2609 8.75Z" />
    </symbol>
</svg>