<svg width="27" height="35" viewBox="0 0 27 35" fill="none" xmlns="http://www.w3.org/2000/svg">
    <path id="Vector"
        d="M13.3333 0C7.79365 0 3.33333 4.46032 3.33333 10V11.6667C1.5 11.6667 0 13.1667 0 15V31.6667C0 33.5 1.5 35 3.33333 35H23.3333C25.1667 35 26.6667 33.5 26.6667 31.6667V15C26.6667 13.1667 25.1667 11.6667 23.3333 11.6667V10C23.3333 4.46032 18.873 0 13.3333 0ZM13.3333 3.33333C17.127 3.33333 20 6.20635 20 10V11.6667H6.66667V10C6.66667 6.20635 9.53968 3.33333 13.3333 3.33333ZM13.3333 20C15.1667 20 16.6667 21.5 16.6667 23.3333C16.6667 25.1667 15.1667 26.6667 13.3333 26.6667C11.5 26.6667 10 25.1667 10 23.3333C10 21.5 11.5 20 13.3333 20Z"
        fill="#0671E0" />
</svg>