<svg width="35" height="35" viewBox="0 0 35 35" fill="none" xmlns="http://www.w3.org/2000/svg">
    <path id="Vector"
        d="M27.0971 3.12094L17.9607 0.074482C17.6615 -0.0251529 17.3382 -0.0251529 17.039 0.074482L7.90255 3.12094C6.44991 3.60348 5.18628 4.53152 4.2912 5.77323C3.39611 7.01493 2.9151 8.50713 2.91651 10.0378V17.5001C2.91651 28.5295 16.3332 34.6209 16.9078 34.8747C17.0942 34.9575 17.2959 35.0003 17.4998 35.0003C17.7038 35.0003 17.9055 34.9575 18.0919 34.8747C18.6665 34.6209 32.0832 28.5295 32.0832 17.5001V10.0378C32.0846 8.50713 31.6036 7.01493 30.7085 5.77323C29.8134 4.53152 28.5498 3.60348 27.0971 3.12094ZM24.3803 14.1707L18.1503 20.4007C17.8953 20.6574 17.5919 20.8608 17.2577 20.9993C16.9235 21.1377 16.5651 21.2084 16.2034 21.2072H16.1553C15.7861 21.2015 15.422 21.1211 15.0849 20.9707C14.7477 20.8203 14.4446 20.6031 14.1938 20.3322L10.8309 16.8322C10.6852 16.6971 10.5687 16.5336 10.4885 16.3518C10.4083 16.1701 10.3661 15.9738 10.3645 15.7752C10.3628 15.5765 10.4018 15.3796 10.479 15.1965C10.5562 15.0135 10.67 14.8481 10.8133 14.7106C10.9567 14.5731 11.1267 14.4663 11.3128 14.3968C11.499 14.3274 11.6973 14.2967 11.8957 14.3066C12.0942 14.3166 12.2885 14.3669 12.4667 14.4547C12.645 14.5424 12.8034 14.6656 12.9323 14.8168L16.2048 18.2293L22.3123 12.1043C22.5874 11.8386 22.9558 11.6916 23.3381 11.695C23.7205 11.6983 24.0863 11.8517 24.3567 12.122C24.627 12.3924 24.7804 12.7582 24.7837 13.1406C24.7871 13.5229 24.6401 13.8913 24.3744 14.1664L24.3803 14.1707Z"
        fill="#0671E0" />
</svg>