<svg width="14" height="14" viewBox="0 0 14 14" fill="none" xmlns="http://www.w3.org/2000/svg">
    <path
        d="M3.73909 5.25H10.2608C10.3761 5.25048 10.4888 5.28517 10.5844 5.34966C10.6801 5.41416 10.7545 5.50557 10.7982 5.61234C10.8419 5.71911 10.8529 5.83644 10.83 5.94949C10.807 6.06255 10.751 6.16626 10.6691 6.2475L7.41409 9.5025C7.35986 9.55718 7.29535 9.60057 7.22426 9.63019C7.15318 9.6598 7.07693 9.67505 6.99992 9.67505C6.92292 9.67505 6.84667 9.6598 6.77559 9.63019C6.7045 9.60057 6.63999 9.55718 6.58576 9.5025L3.33076 6.2475C3.24884 6.16626 3.19286 6.06255 3.16989 5.94949C3.14691 5.83644 3.15798 5.71911 3.20168 5.61234C3.24539 5.50557 3.31978 5.41416 3.41543 5.34966C3.51109 5.28517 3.62372 5.25048 3.73909 5.25Z"
        fill="#89939E" />
</svg>